<svg width="205" height="62" viewBox="0 0 205 62" fill="none" xmlns="http://www.w3.org/2000/svg">
<path d="M107.04 50.312C106.864 50.312 106.688 50.304 106.512 50.288C106.352 50.272 106.208 50.248 106.08 50.216V46.64C106.208 46.656 106.336 46.672 106.464 46.688C106.592 46.704 106.744 46.712 106.92 46.712C107.272 46.712 107.56 46.696 107.784 46.664C108.008 46.616 108.192 46.544 108.336 46.448C108.48 46.352 108.6 46.224 108.696 46.064C108.792 45.904 108.88 45.704 108.96 45.464L102.24 33.2H106.608L111.072 41.72L114.576 33.2H118.8L113.184 45.92C112.816 46.736 112.456 47.424 112.104 47.984C111.752 48.528 111.344 48.976 110.88 49.328C110.416 49.68 109.872 49.928 109.248 50.072C108.64 50.232 107.904 50.312 107.04 50.312ZM119.395 37.28H123.091V42.104H124.051L127.603 37.28H131.635L126.955 43.256L131.875 50H127.507L124.051 44.936H123.091V50H119.395V37.28ZM133.317 37.28H136.725V39.008C136.885 38.752 137.085 38.504 137.325 38.264C137.581 38.008 137.877 37.784 138.213 37.592C138.549 37.4 138.925 37.248 139.341 37.136C139.757 37.024 140.205 36.968 140.685 36.968C142.477 36.968 143.837 37.496 144.765 38.552C145.693 39.608 146.157 41.184 146.157 43.28V43.76C146.157 44.848 146.029 45.8 145.773 46.616C145.517 47.432 145.149 48.112 144.669 48.656C144.189 49.2 143.613 49.616 142.941 49.904C142.269 50.176 141.517 50.312 140.685 50.312C139.965 50.312 139.277 50.152 138.621 49.832C137.981 49.496 137.445 49.016 137.013 48.392V54.8H133.317V37.28ZM139.797 47.264C140.533 47.264 141.141 46.968 141.621 46.376C142.117 45.784 142.365 44.912 142.365 43.76V43.28C142.365 42.176 142.125 41.36 141.645 40.832C141.181 40.288 140.565 40.016 139.797 40.016C139.013 40.016 138.349 40.264 137.805 40.76C137.277 41.24 137.013 41.96 137.013 42.92V44.12C137.013 45.128 137.277 45.904 137.805 46.448C138.349 46.992 139.013 47.264 139.797 47.264ZM152.043 50.312C151.355 50.312 150.739 50.208 150.195 50C149.667 49.792 149.219 49.512 148.851 49.16C148.483 48.792 148.203 48.368 148.011 47.888C147.819 47.392 147.723 46.856 147.723 46.28C147.723 45.016 148.107 44.048 148.875 43.376C149.659 42.704 150.835 42.368 152.403 42.368H156.027V41.84C156.027 41.072 155.843 40.544 155.475 40.256C155.107 39.952 154.603 39.8 153.963 39.8C153.355 39.8 152.907 39.896 152.619 40.088C152.331 40.28 152.171 40.584 152.139 41H148.443C148.475 40.424 148.619 39.896 148.875 39.416C149.131 38.92 149.491 38.496 149.955 38.144C150.435 37.776 151.019 37.488 151.707 37.28C152.395 37.072 153.187 36.968 154.083 36.968C154.915 36.968 155.675 37.064 156.363 37.256C157.067 37.432 157.667 37.728 158.163 38.144C158.659 38.544 159.043 39.072 159.315 39.728C159.587 40.368 159.723 41.152 159.723 42.08V46.76C159.723 47.432 159.739 48.024 159.771 48.536C159.803 49.032 159.851 49.52 159.915 50H156.411C156.379 49.728 156.347 49.488 156.315 49.28C156.299 49.072 156.291 48.816 156.291 48.512C155.907 49.024 155.371 49.456 154.683 49.808C154.011 50.144 153.131 50.312 152.043 50.312ZM153.243 47.72C154.027 47.72 154.683 47.496 155.211 47.048C155.755 46.6 156.027 45.984 156.027 45.2V44.672H153.123C152.579 44.672 152.171 44.816 151.899 45.104C151.643 45.392 151.515 45.728 151.515 46.112C151.515 46.576 151.643 46.96 151.899 47.264C152.171 47.568 152.619 47.72 153.243 47.72ZM162.005 37.28H165.605V44.96L171.005 37.28H174.245V50H170.645V42.32L165.245 50H162.005V37.28ZM176.653 37.28H180.349V42.008H185.197V37.28H188.893V50H185.197V45.032H180.349V50H176.653V37.28ZM195.262 50.312C194.574 50.312 193.958 50.208 193.414 50C192.886 49.792 192.438 49.512 192.07 49.16C191.702 48.792 191.422 48.368 191.23 47.888C191.038 47.392 190.942 46.856 190.942 46.28C190.942 45.016 191.326 44.048 192.094 43.376C192.878 42.704 194.054 42.368 195.622 42.368H199.246V41.84C199.246 41.072 199.062 40.544 198.694 40.256C198.326 39.952 197.822 39.8 197.182 39.8C196.574 39.8 196.126 39.896 195.838 40.088C195.55 40.28 195.39 40.584 195.358 41H191.662C191.694 40.424 191.838 39.896 192.094 39.416C192.35 38.92 192.71 38.496 193.174 38.144C193.654 37.776 194.238 37.488 194.926 37.28C195.614 37.072 196.406 36.968 197.302 36.968C198.134 36.968 198.894 37.064 199.582 37.256C200.286 37.432 200.886 37.728 201.382 38.144C201.878 38.544 202.262 39.072 202.534 39.728C202.806 40.368 202.942 41.152 202.942 42.08V46.76C202.942 47.432 202.958 48.024 202.99 48.536C203.022 49.032 203.07 49.52 203.134 50H199.63C199.598 49.728 199.566 49.488 199.534 49.28C199.518 49.072 199.51 48.816 199.51 48.512C199.126 49.024 198.59 49.456 197.902 49.808C197.23 50.144 196.35 50.312 195.262 50.312ZM196.462 47.72C197.246 47.72 197.902 47.496 198.43 47.048C198.974 46.6 199.246 45.984 199.246 45.2V44.672H196.342C195.798 44.672 195.39 44.816 195.118 45.104C194.862 45.392 194.734 45.728 194.734 46.112C194.734 46.576 194.862 46.96 195.118 47.264C195.39 47.568 195.838 47.72 196.462 47.72Z" fill="white"/>
<path d="M55.9162 0.215021C55.8255 0.328341 55.6744 0.547425 55.5989 0.698518C55.5158 0.849611 55.3722 1.00826 55.274 1.05359C55.1758 1.09891 54.7452 1.13669 54.3146 1.13669C53.6498 1.13669 53.5214 1.11402 53.408 0.993149C53.34 0.917603 53.1512 0.796729 52.9925 0.721182C52.7055 0.592753 52.6903 0.592753 52.509 0.728737C52.2446 0.932712 51.9198 1.53708 51.8669 1.94503C51.814 2.26988 51.7838 2.30766 51.4363 2.49652C50.4391 3.02535 50.084 3.07823 49.6609 2.73827C49.389 2.51163 49.3285 2.49652 48.777 2.49652C48.4446 2.49652 48.1425 2.45875 48.1047 2.42098C48.0594 2.37565 47.8327 2.33788 47.5985 2.32277C47.1906 2.30766 47.1603 2.31521 46.8355 2.64006L46.488 2.98002L46.2765 2.77605C46.0272 2.5343 45.7023 2.51163 45.2264 2.70805C44.7882 2.88936 44.5918 3.07068 44.2594 3.59195C43.9874 4.02256 43.315 4.93667 42.8315 5.5486C42.6049 5.82812 42.5973 5.85834 42.5973 6.64402C42.5973 7.27861 42.6351 7.55813 42.7787 8.01141C43.1111 9.05395 43.1639 9.23526 43.1186 9.30326C43.096 9.34103 42.9524 9.37125 42.7938 9.37125C42.5369 9.37125 42.4991 9.34103 42.3783 9.06906C42.2423 8.75932 41.7059 8.23805 41.3131 8.02652C41.162 7.95098 40.7691 7.89054 40.127 7.85276C39.3186 7.80744 39.1298 7.77722 38.9636 7.64123C38.7067 7.44481 38.6009 7.44481 38.3139 7.64123C38.1477 7.76211 38.0268 7.79233 37.8304 7.76211C37.5131 7.70923 37.3771 7.82255 37.1202 8.33626C36.9767 8.62334 36.9238 8.66867 36.8105 8.61578C36.6594 8.53268 36.5536 8.24561 36.4403 7.63368C36.327 7.02931 36.1532 6.67424 35.9039 6.57603C35.7226 6.50048 35.6395 6.51559 35.292 6.67424C35.0729 6.78001 34.7858 6.88577 34.6574 6.90843C34.4081 6.96132 34.0757 7.27861 33.834 7.68656C33.6526 7.98875 33.5847 7.9963 33.5242 7.72434C33.494 7.61102 33.4109 7.39193 33.3354 7.24084C33.154 6.88577 32.8745 6.82533 32.1493 6.97643L31.6204 7.08219L31.4542 6.73468C31.1974 6.17563 31.1823 6.16053 30.9859 6.13786C30.8423 6.12275 30.7139 6.22096 30.3664 6.6138C30.1246 6.88577 29.898 7.10486 29.8678 7.10486C29.8451 7.10486 29.7696 7.0142 29.7167 6.89333C29.5505 6.56092 29.3994 6.42494 29.2256 6.42494C28.9914 6.42494 28.9159 6.54581 28.8101 7.08219C28.7119 7.5808 28.6666 7.63368 28.5079 7.44481C28.4324 7.3466 28.4324 7.30128 28.523 7.19551C28.8403 6.84044 28.7195 6.42494 28.2964 6.42494C28.1604 6.42494 27.9187 6.50048 27.76 6.59114L27.4729 6.75734L27.0348 6.57603C26.793 6.47782 26.4757 6.40227 26.3398 6.40227C26.0829 6.40983 26.0753 6.39472 25.9771 5.92633C25.9016 5.52594 25.758 5.45794 24.9119 5.42772C24.2093 5.40506 24.1262 5.38995 23.8241 5.17842C23.4841 4.94423 23.1366 4.89135 22.6304 5.00466C22.4189 5.05755 22.3736 5.04244 22.3207 4.89135C22.23 4.6496 22.0109 4.55894 21.1044 4.38518C20.6662 4.29453 20.2432 4.18876 20.1525 4.15099C20.0618 4.09811 19.7597 4.09055 19.397 4.11322C17.2591 4.27942 17.0173 4.26431 16.277 3.87147L15.937 3.69771L15.446 3.90169C15.174 4.01501 14.902 4.14344 14.8416 4.18876C14.7056 4.29453 13.4591 4.27186 13.2627 4.1661C13.1493 4.10566 13.0511 4.11322 12.9 4.18876C12.7792 4.2492 12.3486 4.4154 11.9482 4.57405C11.0945 4.8989 11.0189 4.95934 10.6941 5.53349C10.4146 6.03965 10.2861 6.21341 9.93862 6.55337C9.73465 6.75734 9.62888 6.80267 9.36447 6.80267C9.10761 6.80267 9.00185 6.75734 8.82809 6.57603C8.53346 6.26629 8.1104 6.25874 7.80821 6.56092L7.60424 6.77245L7.61179 8.13229C7.6269 9.62811 7.59668 9.51479 8.20861 10.3911C8.40503 10.6555 8.51079 10.9124 8.54101 11.1239C8.60901 11.7207 9.00185 12.3327 9.62888 12.7935L9.81019 12.9295L9.52312 12.8842C9.19827 12.8313 9.01696 12.9295 9.01696 13.1637C9.01696 13.2392 9.18316 13.6245 9.38713 14.0098C9.74976 14.6897 9.79508 14.9088 9.62133 15.1505C9.59111 15.1883 9.52312 15.4452 9.47023 15.7171C9.36447 16.2989 9.28137 16.4273 9.0925 16.3215C8.76765 16.1478 8.48058 16.2309 8.13306 16.601C7.95931 16.7975 7.80821 16.9863 7.80821 17.0165C7.80821 17.077 7.30961 17.5907 6.96965 17.8702C6.70524 18.0969 6.52392 18.3235 5.48138 19.7211C4.96767 20.4086 4.50683 21.0205 4.46151 21.0809C4.40862 21.1414 4.30286 21.3 4.22731 21.4209C4.14421 21.5493 4.03845 21.6778 3.97801 21.708C3.92513 21.7382 3.8798 21.7986 3.8798 21.844C3.8798 21.8817 3.62294 22.2595 3.3132 22.6674C3.00346 23.0829 2.71638 23.4984 2.67106 23.6042C2.51241 24.0273 2.51241 24.6694 2.67106 25.5684C2.8297 26.4825 3.00346 26.9282 3.34342 27.2304C3.53229 27.4042 3.5625 27.7668 3.38119 27.6988C3.3132 27.6761 3.23765 27.6535 3.20744 27.6535C3.17722 27.6535 2.96569 27.4873 2.73905 27.2758C2.05913 26.6487 1.77205 26.7847 1.50009 27.8801C1.33388 28.56 1.02414 29.2551 0.59353 29.9199C0.419773 30.1918 0.238461 30.5091 0.193133 30.6376C0.0949231 30.8944 -0.0410604 32.1032 0.0118221 32.2392C0.0269313 32.292 0.17047 32.4054 0.329117 32.496C0.631303 32.6698 0.684185 32.7453 0.888161 33.3875C1.06192 33.9087 1.1148 33.9616 1.57563 34.0447C1.91559 34.1051 1.95337 34.1354 1.97603 34.3242C2.00625 34.5584 2.21022 34.7171 2.58796 34.7851C2.73149 34.8077 2.9808 34.8682 3.147 34.9135C3.40386 34.9815 3.43408 35.0117 3.3963 35.1704C3.35853 35.3063 3.38875 35.3819 3.51718 35.465C3.74382 35.601 4.34819 35.6841 4.71836 35.6236C5.013 35.5707 5.10365 35.465 5.26985 34.9588C5.29252 34.8908 5.33785 34.8304 5.36806 34.8379C5.39828 34.8379 5.60981 35.057 5.8289 35.3214C6.04798 35.5783 6.34261 35.8503 6.49371 35.9258C6.75056 36.0467 6.78078 36.0391 7.22651 35.8805L7.70245 35.7143L7.91398 35.9183C8.17839 36.16 8.39748 36.2204 8.77521 36.16C9.73465 36.0165 9.90085 36.0165 10.203 36.1902C10.4523 36.3262 10.5883 36.3489 11.0265 36.3187C11.3136 36.3035 11.7895 36.2204 12.0841 36.1373C12.3863 36.0542 12.6583 36.0014 12.6961 36.0316C12.7414 36.0542 12.7943 36.1676 12.8169 36.2733C12.9076 36.6284 14.0181 37.6181 14.4563 37.7238C15.0909 37.8825 15.8615 37.3008 16.0805 36.5075C16.1259 36.3564 16.1712 36.3413 16.6774 36.3413C16.9871 36.3413 17.735 36.2884 18.3545 36.2204C19.3895 36.1147 19.533 36.0845 20.1223 35.7974C20.4774 35.6312 21.1573 35.2006 21.6408 34.8379C22.502 34.2034 22.7664 33.9087 22.8722 33.4554C22.8948 33.3421 22.9477 33.1684 22.993 33.0626L23.061 32.8737L23.5068 33.0702C23.9374 33.2515 23.96 33.259 24.1565 33.1306C24.2698 33.0551 24.3529 32.9266 24.3529 32.836C24.3529 32.6924 24.3907 32.6773 24.7004 32.7C24.9724 32.7226 25.0781 32.7 25.2141 32.5716L25.3803 32.4129L25.5994 32.6395C25.9091 32.9568 26.1056 32.9342 26.4455 32.5187L26.7326 32.1712L27.1934 32.224C27.5561 32.2618 27.6694 32.2467 27.7449 32.1561C27.8733 32.005 28.0093 32.005 28.1302 32.1485C28.1906 32.2165 28.3568 32.2618 28.5759 32.2618C28.8706 32.2618 29.0141 32.3223 29.4523 32.6244C30.4117 33.2741 30.6912 33.5083 30.7819 33.735C30.9028 34.0145 30.9783 34.0749 31.2427 34.0749C31.4014 34.0749 31.4391 34.1051 31.4014 34.1882C31.3409 34.3545 31.56 34.566 31.9075 34.6793C32.1946 34.7775 32.2324 34.77 32.6932 34.5282C33.1616 34.2789 33.1843 34.2789 33.4638 34.3847C33.6829 34.4678 33.7811 34.5584 33.834 34.7322C33.9322 35.0344 34.0833 35.193 34.5894 35.5481C34.9445 35.7898 35.0503 35.8276 35.2996 35.7898L35.5866 35.7521L35.6773 36.1147C35.7302 36.3187 35.8888 36.6435 36.0324 36.8475C36.1759 37.0439 36.2892 37.2252 36.2892 37.2554C36.2892 37.2781 36.1381 37.399 35.9493 37.535C35.6848 37.7238 35.6093 37.822 35.6093 37.9882C35.6093 38.1016 35.6471 38.2375 35.6848 38.2753C35.7679 38.3584 35.6773 38.9779 35.5186 39.3858C35.4507 39.5596 35.4658 39.62 35.5791 39.7485C35.7 39.8845 35.7755 39.8996 36.0777 39.8618L36.4328 39.8089L36.3874 40.0658C36.3043 40.587 36.6216 40.8061 37.0976 40.5644C37.5282 40.3453 37.5962 40.3679 37.4451 40.7004C37.3846 40.859 37.3015 41.0554 37.2713 41.1385C37.2411 41.2216 37.1731 41.3878 37.1278 41.5011C37.022 41.7807 37.022 42.1811 37.1353 42.2944C37.1882 42.3473 37.3393 42.385 37.4753 42.385C37.6415 42.385 37.7246 42.4228 37.7246 42.4908C37.7246 42.5512 37.8077 42.7628 37.9135 42.9592C38.0192 43.1556 38.1023 43.3747 38.1023 43.4502C38.1023 43.692 38.3743 43.896 38.6991 43.896C38.9409 43.896 39.0316 43.9413 39.228 44.1604C39.3564 44.3039 39.4924 44.4248 39.5377 44.4248C39.6586 44.4248 39.6284 44.6212 39.4471 44.9989C39.3186 45.2785 39.3035 45.3767 39.3715 45.49C39.4848 45.6638 39.4924 45.9886 39.3866 46.049C39.1826 46.1775 39.4697 46.9934 39.7115 46.9934C39.8172 46.9934 40.0665 47.2276 40.0665 47.3258C40.0665 47.356 39.923 47.3711 39.7492 47.356C39.4622 47.3333 39.4168 47.3031 39.2355 46.9934C39.0316 46.6459 38.8956 46.5703 38.5934 46.6459C38.4725 46.6761 38.3894 46.7818 38.329 46.9707C38.2761 47.1294 38.2157 47.2804 38.1854 47.3107C38.1552 47.3409 37.9663 47.2276 37.7624 47.0614C37.5584 46.8952 37.3318 46.7214 37.2562 46.6836C37.0749 46.5854 36.6065 46.6761 36.3497 46.8574L36.1381 47.0009V46.7365C36.1381 46.2757 35.7604 46.0264 35.4204 46.2681C35.3373 46.321 35.1711 46.389 35.0427 46.4192C34.5516 46.5401 34.3779 46.8725 34.2872 47.8622C34.2268 48.5119 34.3099 48.7612 34.6574 48.9651L34.9218 49.1238L34.5139 49.5242C34.1059 49.917 34.0153 50.1285 34.1815 50.2947C34.3099 50.4232 34.2117 50.5214 33.8037 50.6574C33.3127 50.816 33.2371 50.9142 33.2825 51.3751C33.3278 51.8132 33.3051 51.8359 32.663 51.9719C32.0888 52.0928 31.9831 52.2136 31.9831 52.7273C31.9831 53.4224 31.9453 53.4904 31.56 53.4904C30.8272 53.4904 30.6912 53.7472 31.0387 54.5027C31.1445 54.7293 31.2276 55.0315 31.2276 55.1675C31.2276 55.311 31.2729 55.4772 31.3258 55.5452C31.56 55.8399 32.9954 56.5122 33.4033 56.5122C33.6526 56.5122 33.902 56.278 34.0304 55.923C34.1059 55.7039 34.1437 55.6812 34.4081 55.6812C34.5743 55.6812 35.224 55.5075 35.851 55.3035C36.4781 55.0919 37.0976 54.9257 37.2335 54.9257C37.4904 54.9257 37.7397 55.1448 37.9966 55.583C38.0948 55.7643 38.1854 55.8323 38.3365 55.8323C38.5556 55.8323 38.6009 55.7568 38.8125 54.9635C39.0089 54.2156 39.0013 54.0419 38.7445 53.9436C38.5405 53.8681 38.4045 53.6037 38.4045 53.2788V53.0824L38.5254 53.2486C38.7898 53.6263 39.3413 53.2713 39.296 52.75C39.2809 52.5158 39.3035 52.478 39.583 52.3269C39.7568 52.2363 40.1874 51.9492 40.55 51.6924C40.9051 51.4355 41.2375 51.224 41.2677 51.224C41.4037 51.224 41.8872 50.5818 42.1138 50.121C42.4387 49.426 42.416 49.2522 41.9401 48.8971C41.721 48.7309 41.4717 48.5194 41.3886 48.4212C41.2526 48.2625 41.2602 48.2625 41.5019 48.4439C41.6455 48.5572 41.9099 48.7007 42.0912 48.7687C42.2649 48.8443 42.484 48.9953 42.5671 49.1162C42.8089 49.4562 43.0582 49.4109 43.247 48.9953C43.3301 48.8065 43.5719 48.3759 43.7834 48.0359L44.1687 47.4164L44.1234 46.8272C44.0856 46.2455 44.0856 46.2379 44.2669 46.2379C44.3651 46.2379 44.6144 46.1699 44.826 46.0868C45.1281 45.9659 45.2717 45.9508 45.5285 46.0037C45.9289 46.0868 47.1075 46.0037 47.2586 45.8828C47.3492 45.7997 47.4021 45.8224 47.5456 45.9735C47.7647 46.2077 47.9914 46.2152 48.2633 46.0037C48.422 45.8753 48.5655 45.8375 48.9281 45.8451C49.253 45.8526 49.4343 45.8148 49.525 45.7317C49.7063 45.5731 49.948 45.6486 50.4088 46.0113C50.8244 46.3437 50.8395 46.3739 50.6959 46.5628C50.6128 46.6836 50.575 46.6836 50.3031 46.593C50.1369 46.5325 49.7743 46.457 49.5098 46.4268C49.2379 46.4041 48.8299 46.3286 48.5957 46.2681C48.0594 46.1321 48.0971 46.1321 47.9989 46.321C47.9309 46.4419 47.9385 46.5023 48.0291 46.6005C48.1878 46.7818 48.8677 47.1218 49.3965 47.288L49.8498 47.4315L49.4041 47.56C49.1623 47.628 48.8979 47.7564 48.8224 47.8319C48.49 48.1643 48.7393 48.3834 49.5854 48.5119C49.9405 48.5647 50.2578 48.6327 50.2955 48.6705C50.3409 48.7007 50.424 48.7309 50.4919 48.7309C50.5599 48.7309 50.6808 48.7989 50.7639 48.8896C50.9528 49.1011 51.6327 49.4411 52.3353 49.6753C53.0303 49.9095 53.6951 49.9246 54.2919 49.7206C54.5186 49.6375 54.8887 49.5544 55.1154 49.5242C55.5007 49.4788 55.5309 49.4864 56.0824 49.849C57.0267 50.4685 57.548 50.5365 57.9559 50.0832C58.1372 49.8792 58.1599 49.8717 58.2052 49.9926C58.3034 50.2343 58.2732 50.6045 58.1448 50.8462C57.9031 51.2693 56.377 52.191 55.3798 52.5158C54.7225 52.7273 53.9142 53.1806 53.5062 53.5659C53.2494 53.8077 53.0832 54.1552 52.9925 54.5858C52.917 54.9937 52.9245 55.0542 53.0454 55.2204C53.2418 55.4923 53.5214 55.5377 54.3901 55.4395C55.3194 55.3412 55.41 55.379 55.7726 56.0136C55.9011 56.2478 56.0899 56.4896 56.1957 56.5575C56.4375 56.7162 57.0947 56.7313 57.4271 56.5953C57.6311 56.5122 57.6915 56.5122 57.8426 56.6104C58.0088 56.7162 58.0164 56.7615 57.9635 57.1317C57.9333 57.3508 57.9031 57.9476 57.9031 58.4613C57.8955 59.451 57.8804 59.5039 57.4724 60.0402C57.1854 60.418 57.14 60.7504 57.3365 61.0299C57.4044 61.1281 57.6462 61.3925 57.8804 61.6192C58.3563 62.08 58.3337 62.0724 59.2931 61.8609C59.5046 61.8156 59.9579 61.7703 60.313 61.7551C60.6681 61.7476 61.0307 61.7325 61.1213 61.7325C61.3782 61.7249 61.7106 61.3699 62.0203 60.7806C62.5114 59.8363 62.9647 59.4812 63.9014 59.2697C64.6342 59.111 65.6163 58.8164 65.979 58.6502C67.2708 58.0609 67.8676 57.7134 67.8676 57.5321C67.8676 57.5019 67.9205 57.3659 67.9809 57.2299C68.0943 57.0033 68.1169 56.9882 68.3813 57.041C68.5324 57.0713 68.812 57.1544 69.0008 57.2224C69.3861 57.3659 70.2549 57.4792 71.4183 57.5472L72.2191 57.585L72.4986 57.2752C72.6497 57.1015 72.7857 56.89 72.7857 56.7917C72.8008 56.5953 72.8008 56.6558 72.7404 56.0892C72.6875 55.6661 72.7026 55.6132 72.8612 55.4621C72.9972 55.3337 73.0954 55.3035 73.2843 55.3412C73.4429 55.3715 73.5563 55.3488 73.6394 55.2657C73.7905 55.1071 73.7905 55.1146 73.6091 54.7444C73.4581 54.4347 72.9746 54.0721 72.5893 53.9739C72.3777 53.921 71.6903 54.1098 71.1237 54.3743C70.8064 54.5253 70.6855 54.548 70.5948 54.4876C70.5269 54.4347 70.3304 54.3063 70.1491 54.2005C69.8318 54.0041 69.8167 54.0041 69.507 54.125C69.3332 54.1929 69.0688 54.3591 68.9253 54.4951C68.6306 54.7671 68.4191 54.8804 67.9809 55.0013C67.6788 55.0919 67.6561 55.0844 66.4851 54.7898C66.1829 54.7142 65.8279 54.344 65.8279 54.1098C65.8279 53.9965 65.8807 53.7699 65.9412 53.6037C66.2132 52.8331 66.0394 52.3874 65.3217 52.0399C65.0422 51.9039 64.6947 51.6697 64.5436 51.5262C64.1507 51.156 63.773 50.8462 63.6975 50.8462C63.6672 50.8462 63.637 50.5969 63.637 50.2947C63.637 49.9926 63.5992 49.7055 63.5539 49.6602C63.501 49.6073 63.6295 49.5695 64.0072 49.5468C64.4831 49.5091 64.5814 49.4713 65.012 49.1616C65.5106 48.8065 65.979 48.5798 66.2056 48.5798C66.4171 48.5798 66.7193 48.2399 66.7722 47.9453C66.8175 47.7111 66.8477 47.6884 66.9611 47.7488C67.0366 47.7942 67.2255 47.8244 67.3766 47.8244C67.5957 47.8244 67.6712 47.7866 67.777 47.5977C67.845 47.4769 67.9583 47.3711 68.0187 47.3711C68.0792 47.3711 68.3738 47.1973 68.6609 46.9934C69.7412 46.2304 70.3153 46.0113 71.2672 46.0113C71.8414 46.0113 71.9396 45.9886 72.068 45.8526C72.1435 45.762 72.3098 45.6411 72.4382 45.5731C72.7781 45.3918 74.0095 44.8781 74.1153 44.8781C74.1682 44.8781 74.3344 44.9612 74.4855 45.0669C74.7877 45.2709 74.9312 45.2936 75.2258 45.1803C75.4223 45.1047 75.528 44.931 75.7622 44.2586C75.8907 43.9111 75.8982 43.9111 76.2835 43.8733C77.3789 43.76 77.6131 43.6844 77.9077 43.352C78.361 42.8308 78.5121 42.7326 78.9956 42.6343C79.6 42.521 80.5972 42.5135 81.0731 42.6192C81.7531 42.7779 82.1686 42.521 82.297 41.8638C82.3348 41.6522 82.4254 41.3727 82.4934 41.2443C82.5916 41.0479 82.5992 40.9723 82.5236 40.8288C82.3801 40.5719 82.5312 38.7588 82.7049 38.6153C82.7578 38.5699 83.1658 38.4868 83.6115 38.4264C84.7825 38.2753 85.0847 38.0487 85.4171 37.0817C85.6966 36.2809 85.6588 36.3035 86.2783 36.4546C86.6862 36.5529 87.064 36.5755 88.0461 36.5529C89.2397 36.5302 89.3001 36.5226 89.6401 36.3262C90.0481 36.0769 90.3049 35.6312 90.3049 35.1401C90.3049 34.9135 90.3578 34.7473 90.4938 34.5735C90.6978 34.3091 90.9093 33.7048 90.9093 33.3875C90.9093 33.2515 90.8488 33.1684 90.7129 33.1004C90.5467 33.0248 90.524 32.9795 90.5618 32.8058C90.7053 32.1712 90.7053 32.0956 90.4938 31.5592C90.1009 30.5167 90.0632 30.4487 89.8743 30.4034C89.7156 30.358 89.7005 30.3278 89.7459 30.0785C89.8667 29.4288 89.8667 29.4288 90.2596 29.4062C90.8488 29.3684 91.3626 28.9604 91.3626 28.5298C91.3626 28.1672 91.1964 28.0539 90.8564 28.1748C90.6449 28.2579 90.5542 28.2579 90.4182 28.1823C90.2143 28.069 89.7459 27.4495 89.829 27.4042C89.8667 27.3815 90.0783 27.3135 90.3049 27.2531C90.7733 27.1171 90.9395 26.9736 91.287 26.3767C91.4154 26.1501 91.6043 25.9008 91.7025 25.8253C92.1331 25.4929 92.1105 24.5485 91.6647 24.0273L91.4457 23.7704L91.7101 23.4833C91.8536 23.3247 91.9669 23.1283 91.9669 23.0376C91.9669 22.8034 91.5288 22.4408 91.2417 22.4408C91.015 22.4408 90.5391 22.7279 90.3125 22.9923C90.2596 23.0603 90.184 23.1207 90.1463 23.1207C90.0707 23.1207 89.3984 22.2519 89.3984 22.1537C89.3984 22.1159 89.285 21.9573 89.149 21.7986C88.9224 21.5493 88.8695 21.5191 88.4465 21.504C87.9328 21.4738 87.759 21.3982 87.3057 20.9752L86.9884 20.6805L86.3765 20.8165L85.7646 20.9525L85.4926 20.6805C85.3491 20.5295 85.1829 20.401 85.1224 20.401C85.0695 20.401 84.9109 20.265 84.7825 20.0988C84.5483 19.8042 84.5256 19.7967 84.0874 19.7967C83.5208 19.7967 83.196 19.638 82.8485 19.1998C82.4481 18.6937 82.3121 18.5879 82.0326 18.5879C81.6624 18.5879 81.466 18.8674 81.466 19.4114C81.4584 19.6456 81.4131 19.9175 81.3602 20.0157L81.262 20.1895L81.1185 20.0082C81.0429 19.91 80.7105 19.6305 80.3932 19.3963C80.0684 19.1545 79.7209 18.8523 79.6075 18.7088C79.3809 18.4293 79.124 17.8098 79.124 17.5454C79.124 17.4321 79.0183 17.3036 78.7916 17.1374C78.5423 16.9712 78.4063 16.7899 78.2779 16.4953C78.0588 15.9967 77.9153 15.9438 77.3789 16.1931C77.1523 16.2913 76.8123 16.4499 76.6159 16.5406C76.4195 16.6237 76.0795 16.737 75.8604 16.7824C75.6413 16.8277 75.173 16.9637 74.8179 17.0845C74.0473 17.349 73.6016 17.3641 73.2012 17.145C72.8763 16.9712 72.4911 16.9939 72.3249 17.1903C72.272 17.2507 72.2115 17.3036 72.1813 17.3036C72.1511 17.3036 72.0378 17.0845 71.9169 16.8126C71.796 16.5255 71.5921 16.2233 71.4334 16.0873C71.1841 15.8682 71.1463 15.8531 70.7837 15.906C70.5722 15.9362 70.1945 15.974 69.9527 15.9816C69.6505 15.9967 69.439 16.0571 69.2954 16.1629C69.1746 16.2535 69.0537 16.3215 69.0235 16.314C68.963 16.314 68.5626 15.8229 68.1471 15.2488C67.8525 14.8484 67.8072 14.5009 68.0112 14.2364C68.2454 13.9418 68.2076 13.6018 67.8676 12.8766C67.7014 12.5215 67.5654 12.1891 67.5654 12.1362C67.5654 12.0834 67.6334 11.9776 67.7165 11.9021C67.7996 11.8265 67.8676 11.7056 67.8676 11.6301C67.8676 11.4941 67.4672 11.1088 67.3237 11.1088C67.2784 11.1088 67.097 11.0333 66.9233 10.9502C66.5758 10.7764 66.4625 10.6027 66.3869 10.1192C66.3189 9.6961 66.0998 9.59789 65.6012 9.77164C65.0573 9.96806 64.6116 9.93785 64.1054 9.67343C63.4708 9.34858 62.8513 9.20505 62.4812 9.30326C62.0657 9.41658 61.975 9.31837 62.0732 8.8802C62.1336 8.61578 62.1261 8.4798 62.0279 8.23805C61.9599 8.06429 61.9448 7.92076 61.9826 7.89054C62.0959 7.82255 62.0581 7.45992 61.9146 7.24084C61.839 7.12752 61.6502 6.92354 61.4915 6.78756L61.2044 6.54581L61.8617 6.22852C62.5945 5.86589 62.7229 5.73747 62.7305 5.39751C62.7305 5.20109 62.6171 5.04244 62.1261 4.52872C61.5595 3.92435 61.2044 3.36531 61.0987 2.89692C61.076 2.77605 61.0307 2.54941 61.0005 2.37565C60.94 2.0508 60.381 1.1518 60.0184 0.804283C59.7766 0.577644 58.9154 0.23013 58.5905 0.23013C58.4772 0.23013 58.3034 0.298122 58.1977 0.381223C57.9408 0.577644 57.8955 0.570089 57.2609 0.267904C56.5583 -0.0720554 56.173 -0.0871646 55.9162 0.215021ZM61.3555 49.3806C61.5066 49.5317 61.7408 49.7055 61.8617 49.7584C62.0808 49.8566 62.0808 49.8566 61.6577 49.8641C61.2649 49.8641 61.1893 49.8415 60.9249 49.5997C60.7663 49.4562 60.5925 49.3353 60.5472 49.3353C60.4339 49.3353 60.4414 49.2069 60.5623 49.1616C60.8343 49.0482 61.0836 49.1162 61.3555 49.3806ZM62.7305 49.3278C62.7305 49.3655 62.6776 49.4335 62.6171 49.4864C62.5189 49.5619 62.5038 49.5544 62.5038 49.4184C62.5038 49.3278 62.5492 49.2598 62.6171 49.2598C62.6776 49.2598 62.7305 49.29 62.7305 49.3278ZM62.3527 49.8264C62.2998 49.8944 62.2394 49.9246 62.2243 49.9095C62.1714 49.8566 62.2772 49.713 62.3678 49.713C62.4132 49.713 62.4132 49.7584 62.3527 49.8264Z" fill="white"/>
</svg>
